<svg width="34" height="34" viewBox="0 0 34 34" fill="none" xmlns="http://www.w3.org/2000/svg">
<g clip-path="url(#clip0_740_128)">
<path d="M20.7451 13.2524C20.3423 12.8472 19.8958 12.4881 19.4137 12.1816C18.1368 11.3639 16.6523 10.9294 15.1361 10.9294C13.0316 10.9255 11.0126 11.7617 9.5271 13.2524L2.32039 20.4647C0.837407 21.9506 0.00389301 23.9637 0.00256512 26.063C-0.000223443 30.4437 3.54869 33.9971 7.92938 33.9999C10.0306 34.0072 12.0478 33.175 13.5327 31.6883L19.4817 25.7394C19.5898 25.6323 19.6501 25.4861 19.6492 25.3339C19.6474 25.021 19.3923 24.7688 19.0794 24.7706H18.8528C17.6099 24.775 16.3781 24.5363 15.2268 24.0681C15.0147 23.9808 14.7709 24.03 14.6092 24.1927L10.3317 28.4759C9.00338 29.8042 6.84981 29.8042 5.52153 28.4759C4.19324 27.1476 4.19324 24.9941 5.52153 23.6658L12.7566 16.4364C14.0838 15.1109 16.2339 15.1109 17.5611 16.4364C18.4555 17.2783 19.8508 17.2783 20.7451 16.4364C21.13 16.0513 21.3633 15.5405 21.4024 14.9973C21.4437 14.3483 21.2044 13.7128 20.7451 13.2524Z" fill="#E7FE55"/>
<path d="M31.6742 2.32334C28.5764 -0.774423 23.5539 -0.774423 20.4562 2.32334L14.5129 8.26091C14.3497 8.42491 14.3026 8.67156 14.3939 8.88416C14.4841 9.09735 14.695 9.23419 14.9265 9.22974H15.1361C16.3775 9.22748 17.6073 9.46803 18.7564 9.93797C18.9685 10.0253 19.2123 9.97601 19.3739 9.81335L23.6402 5.55276C24.9685 4.22447 27.122 4.22447 28.4503 5.55276C29.7786 6.88104 29.7786 9.03461 28.4503 10.3629L23.1359 15.6716L23.0906 15.7226L21.2323 17.5696C19.905 18.8952 17.755 18.8952 16.4278 17.5696C15.5333 16.7278 14.1381 16.7278 13.2437 17.5696C12.8564 17.9577 12.6229 18.473 12.5865 19.02C12.545 19.669 12.7844 20.3046 13.2437 20.765C13.8995 21.4236 14.6667 21.9607 15.5099 22.3514C15.6289 22.408 15.7479 22.4534 15.8669 22.5044C15.9858 22.5553 16.1105 22.595 16.2294 22.6403C16.3484 22.6857 16.473 22.7253 16.592 22.7593L16.9263 22.8499C17.1529 22.9066 17.3796 22.9519 17.6118 22.9916C17.8916 23.0331 18.1734 23.0596 18.456 23.0709H18.8526H18.8866L19.2266 23.0313C19.3512 23.0256 19.4815 22.9973 19.6288 22.9973H19.8214L20.2124 22.9406L20.3937 22.9066L20.7223 22.8387H20.7846C22.1763 22.4891 23.4471 21.7685 24.4616 20.7537L31.674 13.5413C34.7719 10.4436 34.7719 5.4211 31.6742 2.32334Z" fill="#E7FE55"/>
</g>
<defs>
<clipPath id="clip0_740_128">
<rect width="34" height="34" fill="white"/>
</clipPath>
</defs>
</svg>
