<svg width="34" height="34" viewBox="0 0 34 34" fill="none" xmlns="http://www.w3.org/2000/svg">
<path fill-rule="evenodd" clip-rule="evenodd" d="M26.5625 5.3125V28.6875C26.5625 30.4481 25.1356 31.875 23.375 31.875H10.625C8.86444 31.875 7.4375 30.4481 7.4375 28.6875V5.3125C7.4375 3.55194 8.86444 2.125 10.625 2.125H23.375C25.1356 2.125 26.5625 3.55194 26.5625 5.3125ZM14.3438 7.4375H19.6562C20.2427 7.4375 20.7188 6.9615 20.7188 6.375C20.7188 5.7885 20.2427 5.3125 19.6562 5.3125H14.3438C13.7573 5.3125 13.2812 5.7885 13.2812 6.375C13.2812 6.9615 13.7573 7.4375 14.3438 7.4375ZM13.9963 14.3777L13.8412 13.6042C13.7264 13.0294 13.1665 12.6554 12.5917 12.7702C12.0169 12.886 11.6429 13.4459 11.7576 14.0208C11.7576 14.0208 12.0849 15.6549 12.087 15.6676L12.7628 19.0442C12.9614 20.0377 13.8337 20.7527 14.8463 20.7527H19.4788C20.4924 20.7527 21.3648 20.0377 21.5634 19.0442L22.2424 15.6485C22.3051 15.3361 22.2232 15.0121 22.0224 14.7666C21.8206 14.5201 21.5188 14.3777 21.2001 14.3777H13.9963ZM15.0376 21.8152C14.4511 21.8152 13.9751 22.2912 13.9751 22.8777C13.9751 23.4642 14.4511 23.9402 15.0376 23.9402C15.6241 23.9402 16.1001 23.4642 16.1001 22.8777C16.1001 22.2912 15.6241 21.8152 15.0376 21.8152ZM19.2876 21.8152C18.7011 21.8152 18.2251 22.2912 18.2251 22.8777C18.2251 23.4642 18.7011 23.9402 19.2876 23.9402C19.8741 23.9402 20.3501 23.4642 20.3501 22.8777C20.3501 22.2912 19.8741 21.8152 19.2876 21.8152Z" fill="#E7FE55"/>
</svg>
