<svg width="34" height="35" viewBox="0 0 34 35" fill="none" xmlns="http://www.w3.org/2000/svg">
<path d="M25.5 3.28125H8.5C5.57069 3.28125 3.1875 5.73453 3.1875 8.75V26.25C3.1875 29.2655 5.57069 31.7188 8.5 31.7188H25.5C28.4293 31.7188 30.8125 29.2655 30.8125 26.25V8.75C30.8125 5.73453 28.4293 3.28125 25.5 3.28125ZM17.0032 8.55969C19.3471 8.55969 21.2532 10.5219 21.2532 12.9347C21.2532 15.3475 19.3471 17.3097 17.0032 17.3097C14.6593 17.3097 12.7532 15.3475 12.7532 12.9347C12.7532 10.5219 14.6593 8.55969 17.0032 8.55969ZM23.375 26.8209H10.625C10.0374 26.8209 9.5625 26.3309 9.5625 25.7272C9.5625 21.5053 12.8998 18.0709 17 18.0709C21.1002 18.0709 24.4375 21.5053 24.4375 25.7272C24.4375 26.3309 23.9626 26.8209 23.375 26.8209Z" fill="#E7FE55"/>
</svg>
