<svg width="34" height="34" viewBox="0 0 34 34" fill="none" xmlns="http://www.w3.org/2000/svg">
<g clip-path="url(#clip0_742_142)">
<path d="M29.7303 5.73251L22.1371 13.296L25.2815 17.6943C26.6618 19.8618 26.7642 22.515 25.5558 24.793C24.3687 27.0292 22.1606 28.4068 19.6483 28.4776H19.641C19.5793 28.4788 14.3757 28.4686 14.3139 28.4672H14.3066C12.3325 28.4035 10.5498 27.5341 9.30491 26.0773L5.68265 29.6854C8.68029 32.3615 12.6323 33.9915 16.9666 34C26.3552 34.0184 33.9815 26.4218 34 17.0333C34.0084 12.699 32.3939 8.74065 29.7303 5.73251Z" fill="#E7FE55"/>
<path d="M8.71582 17.6617L13.6805 10.7739L12.3215 4.87966C13.8622 5.23593 15.4358 5.56644 17.0224 5.56956C18.6011 5.57268 20.1905 5.2528 21.7259 4.89812L20.3438 10.787L20.963 11.6528L28.3239 4.32065C25.3256 1.64123 21.371 0.00849769 17.0333 6.40936e-05C7.64482 -0.0183968 0.0184584 7.57821 6.38598e-05 16.9667C-0.00843614 21.3043 1.60876 25.266 4.27636 28.2747L8.21531 24.3512C7.2321 22.1652 7.40894 19.6959 8.71582 17.6617Z" fill="#E7FE55"/>
<path d="M10.1773 23.8325C11.0162 25.4272 12.5795 26.4151 14.361 26.4757C14.4998 26.4766 19.463 26.4863 19.6018 26.4859C21.3836 26.4323 22.9507 25.4506 23.7959 23.8592C24.6597 22.2306 24.5917 20.3365 23.6146 18.786L18.7576 11.9938L15.262 11.9869L10.3785 18.7601C9.39529 20.3068 9.31985 22.2005 10.1773 23.8325Z" fill="#E7FE55"/>
<path d="M18.482 10.0011L19.086 7.42702C18.3753 7.51793 17.6839 7.56308 17.0185 7.56175C16.3531 7.56043 15.662 7.51261 14.9516 7.41891L15.5455 9.99534L18.482 10.0011Z" fill="#E7FE55"/>
</g>
<defs>
<clipPath id="clip0_742_142">
<rect width="34" height="34" fill="white"/>
</clipPath>
</defs>
</svg>
