<svg width="34" height="34" viewBox="0 0 34 34" fill="none" xmlns="http://www.w3.org/2000/svg">
<path fill-rule="evenodd" clip-rule="evenodd" d="M2.125 9.88086H31.875V7.69704C31.875 6.8637 31.5367 6.06368 30.9308 5.47412C30.3355 4.89544 29.5293 4.56836 28.6875 4.56836H5.3125C4.47066 4.56836 3.66452 4.89544 3.06918 5.47412C2.4633 6.06368 2.125 6.8637 2.125 7.69704V9.88086Z" fill="#E7FE55"/>
<path d="M32 22.5C32 24.1569 30.6569 25.5 29 25.5H5C3.34315 25.5 2 24.1569 2 22.5V12H32V22.5ZM8.71973 15.9004L8.44043 19.2998H10.0645C10.384 19.2998 10.6049 19.3351 10.7275 19.4043C10.8502 19.4683 10.9121 19.5669 10.9121 19.7002C10.912 19.8388 10.8427 19.9484 10.7041 20.0283C10.5708 20.103 10.3944 20.1396 10.1758 20.1396C9.93053 20.1396 9.67725 20.1054 9.41602 20.0361C9.16002 19.9668 8.91435 19.8658 8.67969 19.7324L8.04004 21.124C8.33336 21.2893 8.67514 21.4147 9.06445 21.5C9.45898 21.5853 9.85352 21.6279 10.248 21.6279C10.8185 21.6279 11.2958 21.5376 11.6797 21.3564C12.0637 21.1698 12.347 20.9291 12.5283 20.6357C12.7148 20.3372 12.8076 20.012 12.8076 19.6602C12.8076 19.1269 12.6213 18.6974 12.248 18.3721C11.88 18.0414 11.3035 17.876 10.5195 17.876H10.2324L10.2725 17.3242H12.4404V15.9004H8.71973ZM15.7207 15.7725C15.2249 15.7725 14.7852 15.8895 14.4014 16.124C14.0227 16.3534 13.7235 16.6892 13.5049 17.1318C13.2915 17.5692 13.1855 18.0922 13.1855 18.7002C13.1856 19.3081 13.2916 19.8337 13.5049 20.2764C13.7235 20.7136 14.0228 21.0495 14.4014 21.2842C14.7852 21.5133 15.225 21.6279 15.7207 21.6279C16.2167 21.6279 16.6545 21.5135 17.0332 21.2842C17.4171 21.0496 17.7154 20.7135 17.9287 20.2764C18.1474 19.8337 18.2568 19.3081 18.2568 18.7002C18.2568 18.0922 18.1474 17.5692 17.9287 17.1318C17.7154 16.6893 17.4171 16.3533 17.0332 16.124C16.6545 15.8894 16.2167 15.7725 15.7207 15.7725ZM24.2119 18.46C23.9295 18.46 23.6735 18.521 23.4443 18.6436C23.2204 18.7662 23.044 18.9451 22.916 19.1797C22.7881 19.4142 22.7247 19.6944 22.7246 20.0195C22.7246 20.5049 22.8633 20.8867 23.1406 21.1641C23.4179 21.4412 23.7748 21.58 24.2119 21.5801C24.6492 21.5801 25.0069 21.4414 25.2842 21.1641C25.5615 20.8867 25.7002 20.5049 25.7002 20.0195C25.7001 19.6944 25.6358 19.4142 25.5078 19.1797C25.3799 18.9453 25.2018 18.7661 24.9727 18.6436C24.7487 18.5209 24.4946 18.46 24.2119 18.46ZM23.3965 15.9004L19.5723 21.5H20.9238L24.748 15.9004H23.3965ZM24.2119 19.3242C24.3132 19.3242 24.396 19.3802 24.46 19.4922C24.5292 19.5988 24.5644 19.7745 24.5645 20.0195C24.5645 20.2648 24.5292 20.4437 24.46 20.5557C24.396 20.6623 24.3132 20.7158 24.2119 20.7158C24.1107 20.7157 24.0253 20.6622 23.9561 20.5557C23.8922 20.4436 23.8604 20.2646 23.8604 20.0195C23.8604 19.7746 23.8922 19.5988 23.9561 19.4922C24.0253 19.3803 24.1107 19.3243 24.2119 19.3242ZM15.7207 17.2842C16.1474 17.2842 16.3613 17.7562 16.3613 18.7002C16.3613 19.6441 16.1473 20.1162 15.7207 20.1162C15.2943 20.1159 15.0811 19.6438 15.0811 18.7002C15.0811 17.7565 15.2943 17.2845 15.7207 17.2842ZM20.1084 15.8203C19.8257 15.8203 19.5692 15.8812 19.3398 16.0039C19.116 16.1266 18.9405 16.3055 18.8125 16.54C18.6845 16.7747 18.6201 17.0546 18.6201 17.3799C18.6201 17.8652 18.7588 18.2471 19.0361 18.5244C19.3134 18.8016 19.6712 18.9404 20.1084 18.9404C20.5456 18.9404 20.9034 18.8017 21.1807 18.5244C21.458 18.2471 21.5957 17.8652 21.5957 17.3799C21.5957 17.0546 21.5323 16.7747 21.4043 16.54C21.2763 16.3054 21.0975 16.1266 20.8682 16.0039C20.6442 15.8813 20.391 15.8203 20.1084 15.8203ZM20.1084 16.6836C20.2096 16.6837 20.2925 16.7398 20.3564 16.8516C20.4258 16.9582 20.4599 17.1346 20.46 17.3799C20.46 17.6251 20.4257 17.804 20.3564 17.916C20.2925 18.0226 20.2096 18.0761 20.1084 18.0762C20.0071 18.0762 19.9219 18.0226 19.8525 17.916C19.7885 17.804 19.7559 17.6252 19.7559 17.3799C19.7559 17.1346 19.7885 16.9582 19.8525 16.8516C19.9218 16.7399 20.0072 16.6836 20.1084 16.6836Z" fill="#E7FE55"/>
</svg>
