<svg width="30" height="30" viewBox="0 0 30 30" fill="none" xmlns="http://www.w3.org/2000/svg">
<g clip-path="url(#clip0_722_701)">
<path d="M29.8243 10.8984L28.251 8.80066L27.3762 14.9244C27.2961 15.4854 27.0312 16.0151 26.6303 16.4159L15.858 27.1882C14.9184 28.1279 13.6677 28.6455 12.3363 28.6455C11.9384 28.6455 11.548 28.5983 11.1707 28.5084C11.7437 29.4043 12.7467 30 13.8868 30H26.7775C28.5544 30 30.0001 28.5543 30.0001 26.7773V11.4258C30.0001 11.2356 29.9384 11.0506 29.8243 10.8984Z" fill="#E7FE55"/>
<path d="M18.1367 14.6018C18.6221 14.6018 19.0156 14.2083 19.0156 13.7229C19.0156 13.2375 18.6221 12.844 18.1367 12.844C17.6513 12.844 17.2578 13.2375 17.2578 13.7229C17.2578 14.2083 17.6513 14.6018 18.1367 14.6018Z" fill="#E7FE55"/>
<path d="M8.19287 14.6018C8.67828 14.6018 9.07178 14.2083 9.07178 13.7229C9.07178 13.2375 8.67828 12.844 8.19287 12.844C7.70746 12.844 7.31396 13.2375 7.31396 13.7229C7.31396 14.2083 7.70746 14.6018 8.19287 14.6018Z" fill="#E7FE55"/>
<path d="M14.6152 25.9453L25.3876 15.1729C25.522 15.0384 25.6093 14.864 25.6362 14.6757L26.8792 5.97498C26.9183 5.70112 26.8262 5.42479 26.6306 5.2292L24.7661 3.36475L22.2802 5.85071L22.9017 6.47221C23.245 6.81539 23.245 7.37192 22.9017 7.71516C22.7301 7.88678 22.5052 7.97262 22.2803 7.97262C22.0554 7.97262 21.8304 7.88678 21.6588 7.71516L19.1729 5.2292C18.8296 4.88602 18.8296 4.32949 19.1729 3.98625C19.5161 3.64307 20.0726 3.64307 20.4158 3.98625L21.0373 4.60776L23.5232 2.1218L21.6588 0.257347C21.4632 0.0617022 21.1869 -0.0300556 20.913 0.00873344L12.2122 1.25174C12.0239 1.27864 11.8495 1.36588 11.715 1.50035L0.942651 12.2727C-0.313892 13.5292 -0.313892 15.5738 0.942651 16.8302L10.0577 25.9453C10.6859 26.5736 11.5112 26.8876 12.3364 26.8876C13.1617 26.8876 13.987 26.5736 14.6152 25.9453ZM18.1369 11.0861C19.5908 11.0861 20.7736 12.2689 20.7736 13.7228C20.7736 15.1767 19.5908 16.3596 18.1369 16.3596C16.683 16.3596 15.5002 15.1767 15.5002 13.7228C15.5002 12.2689 16.683 11.0861 18.1369 11.0861ZM8.19322 16.3596C6.73933 16.3596 5.5565 15.1767 5.5565 13.7228C5.5565 12.2689 6.73933 11.0861 8.19322 11.0861C9.6471 11.0861 10.8299 12.2689 10.8299 13.7228C10.8299 15.1767 9.64716 16.3596 8.19322 16.3596ZM11.0936 20.8168C11.0015 20.8168 10.9077 20.8022 10.8156 20.7715C10.3551 20.618 10.1062 20.1203 10.2597 19.6597L14.4029 7.23006C14.5564 6.76957 15.0541 6.52073 15.5146 6.67418C15.9751 6.8277 16.224 7.32539 16.0705 7.78594L11.9273 20.2156C11.8045 20.5838 11.4616 20.8168 11.0936 20.8168Z" fill="#E7FE55"/>
<path d="M26.6303 1.50046C26.9735 1.15728 26.9735 0.600752 26.6303 0.25751C26.2871 -0.0856738 25.7306 -0.0856738 25.3873 0.25751L23.5229 2.12196L24.7659 3.36491L26.6303 1.50046Z" fill="#E7FE55"/>
</g>
<defs>
<clipPath id="clip0_722_701">
<rect width="30" height="30" fill="white"/>
</clipPath>
</defs>
</svg>
