<svg width="30" height="30" viewBox="0 0 30 30" fill="none" xmlns="http://www.w3.org/2000/svg">
<g clip-path="url(#clip0_722_755)">
<path d="M0 13.1812V20.9452C0 23.181 1.81244 24.9934 4.04823 24.9934H25.9518C28.1876 24.9934 30 23.181 30 20.9452V13.1812C30 12.7924 29.6848 12.4772 29.296 12.4772H0.704041C0.315234 12.4772 0 12.7924 0 13.1812ZM7.49023 18.1095H5.61279C4.93233 18.1095 4.38072 17.5579 4.38072 16.8774C4.38072 16.197 4.93233 15.6454 5.61279 15.6454H7.49023C8.17069 15.6454 8.7223 16.197 8.7223 16.8774C8.7223 17.5579 8.17069 18.1095 7.49023 18.1095Z" fill="#E7FE55"/>
<path d="M30 9.30904V9.05483C30 6.81903 28.1876 5.00659 25.9518 5.00659H4.04823C1.81244 5.00659 0 6.81903 0 9.05483V9.30904C0 9.69785 0.315234 10.0131 0.704041 10.0131H29.296C29.6848 10.0131 30 9.69785 30 9.30904Z" fill="#E7FE55"/>
</g>
<defs>
<clipPath id="clip0_722_755">
<rect width="30" height="30" fill="white"/>
</clipPath>
</defs>
</svg>
