<svg width="30" height="30" viewBox="0 0 30 30" fill="none" xmlns="http://www.w3.org/2000/svg">
<path fill-rule="evenodd" clip-rule="evenodd" d="M15.1991 18.7803V21.0608C15.1991 21.1254 15.231 21.1807 15.2869 21.213L17.0718 22.2435C17.1893 22.3114 17.3354 22.227 17.3354 22.0913V19.046L24.7023 14.7928L27.0246 16.1335C27.2109 16.2411 27.3175 16.4258 27.3175 16.6409V24.4709C27.3175 24.686 27.2109 24.8707 27.0246 24.9783L20.2436 28.8932C20.0573 29.0008 19.844 29.0008 19.6577 28.8932L12.8767 24.9783C12.6904 24.8707 12.5838 24.686 12.5838 24.4709V17.3853L14.6761 18.5932C14.8416 18.6888 15.0186 18.7511 15.1991 18.7803ZM15.7308 1.10656C15.5445 0.998984 15.3312 0.998984 15.1449 1.10656L8.36392 5.02156C8.17759 5.12914 8.07095 5.31389 8.07095 5.52898V13.3589C8.07095 13.5741 8.17759 13.7588 8.36392 13.8663L15.1449 17.7813C15.3312 17.8889 15.5445 17.8889 15.7308 17.7813L22.5117 13.8663C22.6981 13.7588 22.8047 13.5741 22.8047 13.3589V5.52898C22.8047 5.31383 22.6981 5.12914 22.5117 5.02156L20.1894 3.68082L12.8226 7.93408V10.9793C12.8226 11.1151 12.6765 11.1994 12.5589 11.1315L10.7741 10.1011C10.7182 10.0688 10.6862 10.0134 10.6862 9.94883V6.70062L18.053 2.44736L15.7308 1.10656ZM7.13345 11.036L5.29759 12.096V15.3442C5.29759 15.4088 5.32958 15.4641 5.38548 15.4964L7.1703 16.5269C7.28784 16.5948 7.43397 16.5104 7.43397 16.3747V14.2706C7.55556 14.4329 7.71106 14.572 7.89511 14.6782L11.6462 16.844V22.4238L10.3421 23.1767C10.1558 23.2843 9.94249 23.2843 9.75616 23.1767L2.97534 19.2618C2.78901 19.1542 2.68237 18.9695 2.68237 18.7544V10.9244C2.68237 10.7092 2.78901 10.5245 2.97534 10.4169L7.13345 8.01629V11.036Z" fill="#E7FE55"/>
</svg>
