<svg width="30" height="30" viewBox="0 0 30 30" fill="none" xmlns="http://www.w3.org/2000/svg">
<path fill-rule="evenodd" clip-rule="evenodd" d="M25.3395 4.07647L25.3664 4.10337L25.8966 4.63369L25.9236 4.66059C26.3958 5.13272 26.7898 5.52678 27.0854 5.87503C27.3938 6.23823 27.6498 6.61279 27.7959 7.06279C28.0203 7.75319 28.0203 8.49688 27.7959 9.18728C27.6498 9.63727 27.3938 10.0118 27.0854 10.375C26.7898 10.7233 26.3958 11.1174 25.9236 11.5895L25.8966 11.6164L25.3664 12.1467L25.3395 12.1736C24.8675 12.6458 24.4733 13.0398 24.125 13.3354C23.7618 13.6438 23.3873 13.8997 22.9373 14.0459C22.2469 14.2703 21.5031 14.2703 20.8128 14.0459C20.3628 13.8997 19.9883 13.6438 19.625 13.3354C19.2768 13.0398 18.8826 12.6457 18.4105 12.1736L18.3836 12.1467L17.8534 11.6164L17.8264 11.5895C17.3543 11.1174 16.9603 10.7233 16.6646 10.375C16.3563 10.0118 16.1003 9.63727 15.9541 9.18728C15.7298 8.49688 15.7298 7.75319 15.9541 7.06279C16.1003 6.61279 16.3563 6.23823 16.6646 5.87503C16.9603 5.52678 17.3543 5.13272 17.8264 4.66059L17.8534 4.63369L18.3836 4.10337L18.4105 4.07647C18.8826 3.60432 19.2768 3.21024 19.625 2.91461C19.9883 2.60626 20.3628 2.35034 20.8128 2.20413C21.5031 1.97981 22.2469 1.97981 22.9373 2.20413C23.3873 2.35034 23.7618 2.60626 24.125 2.91461C24.4733 3.21024 24.8674 3.60432 25.3395 4.07647ZM7.71196 2.81248H7.75H8.5H8.53805C9.20574 2.81247 9.76305 2.81246 10.2183 2.84966C10.6932 2.88846 11.139 2.97234 11.5606 3.18714C12.2074 3.51672 12.7333 4.04258 13.0629 4.68939C13.2776 5.11097 13.3615 5.5568 13.4004 6.03165C13.4375 6.48693 13.4375 7.04422 13.4375 7.71189V7.74998V8.49998V8.53802C13.4375 9.20569 13.4375 9.76305 13.4004 10.2183C13.3615 10.6932 13.2776 11.139 13.0629 11.5606C12.7333 12.2074 12.2074 12.7333 11.5606 13.0628C11.139 13.2777 10.6932 13.3616 10.2183 13.4003C9.76305 13.4376 9.20574 13.4376 8.53804 13.4374H8.5H7.75H7.71196C7.04428 13.4376 6.48696 13.4376 6.03166 13.4003C5.55681 13.3616 5.11099 13.2777 4.68941 13.0628C4.0426 12.7333 3.51674 12.2074 3.18716 11.5606C2.97236 11.139 2.88848 10.6932 2.84968 10.2183C2.81248 9.76305 2.81249 9.20574 2.8125 8.53807V8.49998V7.74998V7.71194C2.81249 7.04428 2.81248 6.48693 2.84968 6.03165C2.88848 5.5568 2.97236 5.11097 3.18716 4.68939C3.51674 4.04258 4.0426 3.51672 4.68941 3.18714C5.11099 2.97234 5.55681 2.88846 6.03166 2.84966C6.48695 2.81246 7.04426 2.81247 7.71196 2.81248ZM7.75 16.5624H7.71196C7.04426 16.5624 6.48695 16.5624 6.03166 16.5997C5.55681 16.6384 5.11099 16.7223 4.68941 16.9372C4.0426 17.2667 3.51674 17.7926 3.18716 18.4394C2.97236 18.8609 2.88848 19.3068 2.84968 19.7817C2.81248 20.2369 2.81249 20.7942 2.8125 21.4619V21.4999V22.2499V22.2881C2.81249 22.9557 2.81248 23.5131 2.84968 23.9683C2.88848 24.4432 2.97236 24.8891 3.18716 25.3106C3.51674 25.9574 4.0426 26.4833 4.68941 26.8128C5.11099 27.0277 5.55681 27.1116 6.03166 27.1503C6.48694 27.1876 7.04421 27.1876 7.71186 27.1874H7.75H8.5H8.53804C9.20569 27.1876 9.76308 27.1876 10.2183 27.1503C10.6932 27.1116 11.139 27.0277 11.5606 26.8128C12.2074 26.4833 12.7333 25.9574 13.0629 25.3106C13.2776 24.8891 13.3615 24.4432 13.4004 23.9683C13.4375 23.5131 13.4375 22.9557 13.4375 22.2881V22.2499V21.4999V21.4619C13.4375 20.7942 13.4375 20.2369 13.4004 19.7817C13.3615 19.3068 13.2776 18.8609 13.0629 18.4394C12.7333 17.7926 12.2074 17.2667 11.5606 16.9372C11.139 16.7223 10.6932 16.6384 10.2183 16.5997C9.76305 16.5624 9.20574 16.5624 8.53805 16.5624H8.5H7.75ZM21.462 16.5624H21.5H22.25H22.288C22.9558 16.5624 23.513 16.5624 23.9684 16.5997C24.4433 16.6384 24.889 16.7223 25.3106 16.9372C25.9574 17.2667 26.4833 17.7926 26.8129 18.4394C27.0276 18.8609 27.1115 19.3068 27.1504 19.7817C27.1875 20.2369 27.1875 20.7943 27.1875 21.4619V21.4999V22.2499V22.2881C27.1875 22.9557 27.1875 23.5131 27.1504 23.9683C27.1115 24.4432 27.0276 24.8891 26.8129 25.3106C26.4833 25.9574 25.9574 26.4833 25.3106 26.8128C24.889 27.0277 24.4433 27.1116 23.9684 27.1503C23.5131 27.1876 22.9558 27.1876 22.2881 27.1874H22.25H21.5H21.462C20.7944 27.1876 20.2369 27.1876 19.7816 27.1503C19.3068 27.1116 18.861 27.0277 18.4394 26.8128C17.7926 26.4833 17.2668 25.9574 16.9371 25.3106C16.7224 24.8891 16.6385 24.4432 16.5996 23.9683C16.5625 23.5131 16.5625 22.9557 16.5625 22.2881V22.2499V21.4999V21.4619C16.5625 20.7943 16.5625 20.2369 16.5996 19.7817C16.6385 19.3068 16.7224 18.8609 16.9371 18.4394C17.2668 17.7926 17.7926 17.2667 18.4394 16.9372C18.861 16.7223 19.3068 16.6384 19.7816 16.5997C20.237 16.5624 20.7943 16.5624 21.462 16.5624Z" fill="#E7FE55"/>
</svg>
