<svg width="30" height="30" viewBox="0 0 30 30" fill="none" xmlns="http://www.w3.org/2000/svg">
<path d="M8.2688 11.25H11.3188C11.4125 11.15 11.5125 11.0625 11.6188 10.9813L10 7.21252L8.2688 11.25Z" fill="#E7FE55"/>
<path d="M25.625 11.25C22.9431 11.25 17.0012 11.25 14.375 11.25C12.6856 11.2344 11.23 12.66 11.25 14.375V18.75V25.625C11.25 27.3481 12.6518 28.75 14.375 28.75H25.625C27.3481 28.75 28.75 27.3481 28.75 25.625V14.375C28.75 12.6519 27.3481 11.25 25.625 11.25ZM23.75 18.125H23.0825C22.9425 19.6775 22.2918 21.1188 21.2518 22.2431L22.9412 23.9325C23.34 24.3031 23.035 25.0194 22.5 25C22.34 25 22.18 24.9388 22.0581 24.8169L20.3325 23.0913C19.81 23.5313 17.7862 24.5544 17.1781 24.9213C16.8825 25.0875 16.4968 24.9825 16.3287 24.6781C16.1606 24.3769 16.2693 23.9956 16.5718 23.8288L18.9187 22.525C19.0993 22.425 19.2668 22.3094 19.4331 22.1919L17.0581 19.8169C16.4837 19.2375 17.3606 18.3569 17.9418 18.9331L20.3693 21.36C21.18 20.4688 21.6993 19.3419 21.8331 18.1244H16.25C15.9043 18.1244 15.625 17.845 15.625 17.4994C15.625 17.1538 15.9043 16.8744 16.25 16.8744H19.375V15.6244C19.3775 14.81 20.6218 14.8044 20.625 15.6244V16.8744H23.75C24.5656 16.8794 24.5693 18.1206 23.75 18.125Z" fill="#E7FE55"/>
<path d="M4.375 18.75H10V14.375C10 13.7063 10.15 13.0688 10.425 12.5H7.73125L6.825 14.6187C6.5025 15.3725 5.35437 14.8769 5.675 14.1313L9.425 5.38125C9.525 5.15 9.75 5 10 5C10.25 5 10.475 5.15 10.575 5.38125L12.7 10.3375C13.8044 9.75375 17.2931 10.0781 18.75 10V4.375C18.75 2.65188 17.3481 1.25 15.625 1.25H4.375C2.65188 1.25 1.25 2.65188 1.25 4.375V15.625C1.25 17.3481 2.65188 18.75 4.375 18.75Z" fill="#E7FE55"/>
</svg>
