<svg width="30" height="30" viewBox="0 0 30 30" fill="none" xmlns="http://www.w3.org/2000/svg">
<path d="M28.0416 12.8906L22.2019 18.5831L23.581 26.6231C23.641 26.9746 23.4966 27.3299 23.2078 27.5399C23.0447 27.659 22.8506 27.719 22.6566 27.719C22.5075 27.719 22.3575 27.6834 22.2206 27.6112L15 23.8153L7.78034 27.6103C7.46534 27.7771 7.0819 27.7499 6.79315 27.539C6.5044 27.329 6.36002 26.9737 6.42002 26.6221L7.79909 18.5821L1.95846 12.8906C1.70346 12.6412 1.61065 12.2681 1.72128 11.9296C1.8319 11.5912 2.12534 11.3428 2.47878 11.2912L10.5497 10.1193L14.1591 2.80494C14.475 2.16463 15.525 2.16463 15.841 2.80494L19.4503 10.1193L27.5213 11.2912C27.8747 11.3428 28.1681 11.5903 28.2788 11.9296C28.3894 12.269 28.2966 12.6403 28.0416 12.8906Z" fill="#E7FE55"/>
</svg>
