<svg width="30" height="30" viewBox="0 0 30 30" fill="none" xmlns="http://www.w3.org/2000/svg">
<path d="M22.5 2.8125H7.5C4.91531 2.8125 2.8125 4.91531 2.8125 7.5V22.5C2.8125 25.0847 4.91531 27.1875 7.5 27.1875H22.5C25.0847 27.1875 27.1875 25.0847 27.1875 22.5V7.5C27.1875 4.91531 25.0847 2.8125 22.5 2.8125ZM15.0028 7.33687C17.0709 7.33687 18.7528 9.01875 18.7528 11.0869C18.7528 13.155 17.0709 14.8369 15.0028 14.8369C12.9347 14.8369 11.2528 13.155 11.2528 11.0869C11.2528 9.01875 12.9347 7.33687 15.0028 7.33687ZM20.625 22.9894H9.375C8.85656 22.9894 8.4375 22.5694 8.4375 22.0519C8.4375 18.4331 11.3822 15.4894 15 15.4894C18.6178 15.4894 21.5625 18.4331 21.5625 22.0519C21.5625 22.5694 21.1434 22.9894 20.625 22.9894Z" fill="#E7FE55"/>
</svg>
