<svg width="30" height="30" viewBox="0 0 30 30" fill="none" xmlns="http://www.w3.org/2000/svg">
<g clip-path="url(#clip0_723_765)">
<path d="M16.5625 11.2501C16.5625 10.4796 16.7672 9.76285 17.098 9.12098C16.4842 8.68779 15.75 8.43762 15 8.43762C13.269 8.43762 11.7688 9.66565 11.4319 11.3575L9.8938 19.0626H20.1074L19.4102 15.5594C17.738 14.8426 16.5625 13.1818 16.5625 11.2501Z" fill="#E7FE55"/>
<path d="M13.4375 21.2501C13.4375 22.1119 14.1382 22.8126 15 22.8126C15.8618 22.8126 16.5625 22.1119 16.5625 21.2501C16.5625 21.1452 16.5421 21.0409 16.5207 20.9376H13.4793C13.4579 21.0409 13.4375 21.1452 13.4375 21.2501Z" fill="#E7FE55"/>
<path d="M21.25 8.43762C19.6997 8.43762 18.4375 9.69922 18.4375 11.2501C18.4375 12.801 19.6997 14.0626 21.25 14.0626C22.8003 14.0626 24.0625 12.801 24.0625 11.2501C24.0625 9.69922 22.8003 8.43762 21.25 8.43762ZM22.1875 12.5001C22.1875 13.0177 21.7676 13.4376 21.25 13.4376C20.7324 13.4376 20.3125 13.0177 20.3125 12.5001V10.0001C20.3125 9.48254 20.7324 9.06262 21.25 9.06262C21.7676 9.06262 22.1875 9.48255 22.1875 10.0001V12.5001Z" fill="#E7FE55"/>
<path d="M28.8585 7.59717C28.1298 4.40564 25.5956 1.87207 22.4034 1.14209C17.5597 0.0361329 12.4401 0.0361329 7.59631 1.14209C4.40418 1.87207 1.87 4.40564 1.14123 7.59717C0.0352784 12.4403 0.0352784 17.5599 1.14123 22.4031C1.87122 25.5952 4.40417 28.1288 7.59632 28.8575C12.4481 29.9652 17.5517 29.9652 22.4035 28.8575C25.5956 28.1288 28.1285 25.5952 28.8585 22.4031C29.9645 17.5599 29.9645 12.4403 28.8585 7.59717ZM21.3938 15.9231L22.0188 19.0626H22.4999C23.0175 19.0626 23.4374 19.4826 23.4374 20.0001C23.4374 20.5177 23.0175 20.9376 22.4999 20.9376H18.396C18.4057 21.0427 18.4374 21.144 18.4374 21.2501C18.4374 23.1459 16.8956 24.6876 14.9999 24.6876C13.1041 24.6876 11.5624 23.1459 11.5624 21.2501C11.5624 21.144 11.594 21.0427 11.6038 20.9376H7.49988C6.9823 20.9376 6.56238 20.5177 6.56238 20.0001C6.56238 19.4826 6.9823 19.0626 7.49988 19.0626H7.98122L9.59339 10.9913C10.0416 8.73716 11.8509 7.02795 14.0624 6.64533V6.25013C14.0624 5.73255 14.4823 5.31263 14.9999 5.31263C15.5175 5.31263 15.9374 5.73256 15.9374 6.25013V6.64435C16.7784 6.79144 17.5746 7.14819 18.2719 7.66073C19.0844 6.98545 20.1136 6.56262 21.2499 6.56262C23.8341 6.56262 25.9374 8.66528 25.9374 11.2501C25.9374 13.7857 23.9102 15.8449 21.3938 15.9231Z" fill="#E7FE55"/>
</g>
<defs>
<clipPath id="clip0_723_765">
<rect width="30" height="30" fill="white"/>
</clipPath>
</defs>
</svg>
