<svg width="30" height="30" viewBox="0 0 30 30" fill="none" xmlns="http://www.w3.org/2000/svg">
<path d="M10.8609 7.48594C10.9594 6.52969 11.7609 5.80781 12.7266 5.80781C12.7922 5.80781 12.8578 5.80781 12.9234 5.81719L18.2812 6.37969V2.8125C18.2812 2.29688 17.8594 1.875 17.3438 1.875H4.6875C4.17188 1.875 3.75 2.29688 3.75 2.8125V21.0938C3.75 21.6094 4.17188 22.0312 4.6875 22.0312H9.33281L10.8609 7.48594Z" fill="#E7FE55"/>
<path d="M25.4208 8.09324L12.8278 6.76433C12.3127 6.70997 11.8509 7.08353 11.7966 7.59871L9.87705 25.7885C9.82269 26.3037 10.1962 26.7654 10.7114 26.8198L23.3044 28.1487C23.8196 28.2031 24.2813 27.8295 24.3356 27.3143L26.2552 9.12449C26.3095 8.60931 25.936 8.1476 25.4208 8.09324Z" fill="#E7FE55"/>
</svg>
