<svg width="30" height="30" viewBox="0 0 30 30" fill="none" xmlns="http://www.w3.org/2000/svg">
<path d="M23.3559 11.6718L21.5063 12.419C21.2681 12.5156 21.0178 12.5643 20.7628 12.5643C20.2162 12.5643 19.6875 12.3337 19.3134 11.9315C18.9412 11.5321 18.7491 10.9893 18.7875 10.4428L18.9272 8.45339L17.6437 6.92714C17.3587 6.58776 17.2162 6.17245 17.1966 5.74683H5.03438C2.83125 5.74683 1.03125 7.54683 1.03125 9.75933V20.9156C1.03125 23.1281 2.83125 24.9187 5.03438 24.9187H8.08125L8.01563 26.7843C7.99688 27.5437 8.4 28.2375 9.075 28.5937C9.36563 28.7437 9.675 28.8187 9.99375 28.8187C10.4062 28.8187 10.8187 28.6781 11.1656 28.4156L15.8156 24.9187H21.1781C23.3813 24.9187 25.1812 23.1281 25.1812 20.9156V12.4096L23.3559 11.6718ZM13.5722 18.3093H8.65125C8.18531 18.3093 7.8075 17.9315 7.8075 17.4656C7.8075 16.9996 8.18531 16.6218 8.65125 16.6218H13.5722C14.0381 16.6218 14.4159 16.9996 14.4159 17.4656C14.4159 17.9315 14.0381 18.3093 13.5722 18.3093ZM17.9344 14.0475H8.65312C8.18719 14.0475 7.80937 13.6696 7.80937 13.2037C7.80937 12.7378 8.18719 12.36 8.65312 12.36H17.9344C18.4003 12.36 18.7781 12.7378 18.7781 13.2037C18.7781 13.6696 18.4003 14.0475 17.9344 14.0475Z" fill="#E7FE55"/>
<path d="M23.8435 2.30061L25.202 4.47467L27.6892 5.09436C28.1017 5.19749 28.2638 5.69624 27.991 6.02249L26.3429 7.98561L26.522 10.5422C26.552 10.9659 26.1273 11.2753 25.7326 11.1159L23.356 10.155L20.9795 11.1159C20.5857 11.2753 20.1601 10.9669 20.1901 10.5422L20.3692 7.98561L18.721 6.02249C18.4473 5.69717 18.6104 5.19749 19.0229 5.09436L21.5101 4.47467L22.8685 2.30061C23.0926 1.93967 23.6185 1.93967 23.8435 2.30061Z" fill="#E7FE55"/>
</svg>
